<svg xmlns="http://www.w3.org/2000/svg" width="172" height="32" viewBox="0 0 172 32" fill="none" class="navigation-logo">
  <title>Liberties</title>
  <path d="M2.029 29.998l4.643-4.643a.234.234 0 01.165-.07h17.19c.128 0 .233.105.233.234v4.644a.233.233 0 01-.232.234H2.194a.233.233 0 01-.165-.399zM17.122 1.424L12.478 6.07a.232.232 0 01-.165.067h-5.06a.233.233 0 01-.233-.233V1.259c0-.128.105-.233.233-.233h9.705c.208 0 .311.251.165.398zm12.13 12.13l-4.644 4.644a.232.232 0 01-.165.068h-10.12a.233.233 0 01-.165-.397l4.644-4.644a.233.233 0 01.165-.07h10.12c.207 0 .312.252.165.4zm-4.037 11.254v-5.77a.23.23 0 01.068-.164l4.645-4.644a.232.232 0 01.397.164v10.12c0 .062-.024.12-.068.165l-4.643 4.644a.233.233 0 01-.399-.164v-4.351zM18.127 12.55l-4.643 4.643a.232.232 0 01-.397-.164V6.909a.23.23 0 01.067-.164l4.644-4.646a.234.234 0 01.398.165v10.12a.23.23 0 01-.069.165zM7.253 7.091h4.645c.127 0 .232.103.232.232v11.42l.001.008c0 .03.003.058.01.085.002.015.007.028.01.042.005.016.008.032.015.048.007.015.016.028.024.043.007.013.012.026.02.039a.65.65 0 00.05.061c.003.002.005.007.01.011.003.004.008.006.012.01a.482.482 0 00.06.05c.012.008.026.013.038.021.015.007.029.016.046.023.015.007.03.01.048.015.012.004.026.01.04.012.031.006.063.01.094.01h11.42c.127 0 .232.103.232.231v4.645c0 .13-.105.233-.232.233H7.253a.233.233 0 01-.233-.233V7.324c0-.129.105-.232.233-.232zm-6.23-.347l4.644-4.646a.233.233 0 01.399.165v22.25c0 .062-.025.12-.07.165l-4.643 4.644a.232.232 0 01-.397-.164V6.909a.23.23 0 01.067-.164zm30.198 18.29l.023-.043c.006-.016.01-.033.014-.048.004-.014.01-.028.013-.042a.537.537 0 00.009-.085V12.671a.552.552 0 00-.01-.086c-.003-.014-.008-.028-.012-.041-.004-.016-.008-.032-.014-.048-.006-.015-.015-.029-.023-.043l-.02-.039c-.015-.023-.033-.04-.05-.06-.004-.005-.006-.01-.011-.014-.003-.002-.008-.004-.011-.008a.325.325 0 00-.062-.05c-.01-.008-.023-.012-.034-.02-.016-.008-.03-.018-.048-.024-.013-.006-.026-.008-.04-.013-.017-.005-.033-.011-.05-.015-.019-.004-.04-.004-.061-.006-.01 0-.02-.004-.032-.004H19.383a.232.232 0 01-.233-.232V.54a.565.565 0 00-.01-.085c-.003-.015-.008-.027-.012-.041l-.014-.048c-.006-.016-.015-.028-.023-.043l-.02-.039c-.015-.023-.033-.04-.05-.06l-.01-.014-.012-.008a.37.37 0 00-.062-.05c-.01-.008-.023-.012-.034-.02-.017-.008-.03-.017-.048-.024-.013-.006-.026-.008-.04-.013a.349.349 0 00-.05-.014c-.02-.005-.04-.005-.061-.007-.01 0-.02-.004-.032-.004H6.542c-.01 0-.021.004-.032.004-.02.002-.04.002-.06.007a.363.363 0 00-.05.014c-.014.005-.027.007-.04.013-.017.007-.032.016-.047.025-.012.007-.024.011-.036.02a.362.362 0 00-.06.05L6.204.21.14 6.276a.493.493 0 00-.06.073c-.008.012-.014.026-.02.038-.008.015-.017.029-.023.043-.007.016-.01.032-.015.048-.005.015-.01.029-.012.042a.433.433 0 00-.009.085V30.88c0 .03.004.058.01.087.002.014.006.027.01.04.005.017.009.033.016.049.006.014.015.028.023.043.006.012.012.026.02.038.016.022.032.043.05.062l.01.011c.003.004.008.006.013.01a.484.484 0 00.059.05c.012.007.026.013.038.021.015.008.029.016.046.023.015.007.03.01.048.015.012.004.026.01.04.012.031.007.062.01.094.01h24.26c.03 0 .062-.003.093-.01.015-.002.027-.008.04-.012.018-.005.033-.008.049-.015.017-.007.03-.015.045-.023.013-.008.026-.014.037-.022a.374.374 0 00.061-.049c.005-.004.01-.006.013-.01l6.064-6.065.011-.012a.792.792 0 00.05-.06l.02-.039zM53.828 6.595c0-.18.12-.303.302-.303h3.346c.181 0 .303.122.303.303v16.466c0 .12.06.18.181.18h5.186c.182 0 .301.12.301.302v2.955c0 .18-.119.302-.301.302H54.13c-.182 0-.302-.122-.302-.302V6.595zM67.848 6.595c0-.18.12-.303.302-.303h3.346c.181 0 .303.122.303.303v19.903c0 .18-.122.302-.303.302H68.15c-.182 0-.302-.122-.302-.302V6.595zM81.115 23.452h.875c1.66 0 2.23-.664 2.23-2.835 0-2.14-.57-2.774-2.23-2.774h-.875c-.12 0-.18.06-.18.18v5.249c0 .12.06.18.18.18zm.875-8.745c1.537 0 2.02-.513 2.02-2.533 0-1.99-.483-2.534-2.02-2.534h-.875c-.12 0-.18.06-.18.182v4.704c0 .12.06.18.18.18h.875zm-5.007-8.111c0-.182.122-.303.303-.303h5.186c3.8 0 5.49 1.75 5.49 5.337 0 2.504-.846 3.77-2.354 4.434v.06c1.508.452 2.595 1.9 2.595 4.645 0 4.523-2.052 6.03-6.063 6.03h-4.854c-.181 0-.303-.12-.303-.3V6.596zM92.812 6.595c0-.18.12-.303.303-.303h8.956c.18 0 .301.122.301.303v2.956c0 .18-.121.3-.301.3h-5.126c-.122 0-.181.06-.181.181v4.464c0 .12.059.18.18.18h4.432c.182 0 .303.121.303.302v2.956c0 .181-.121.3-.303.3h-4.431c-.122 0-.181.06-.181.182v4.645c0 .12.059.18.18.18h5.127c.18 0 .301.12.301.302v2.955c0 .18-.121.302-.301.302h-8.956c-.182 0-.303-.122-.303-.302V6.595zM114.191 12.566c0-2.141-.663-2.804-2.202-2.804h-.873c-.122 0-.181.06-.181.18v5.248c0 .12.059.18.181.18h.873c1.539 0 2.202-.633 2.202-2.804zm.724 14.234c-.18 0-.272-.06-.332-.241l-2.322-7.78h-1.145c-.122 0-.181.06-.181.18v7.54c0 .179-.122.3-.303.3h-3.346c-.182 0-.303-.121-.303-.3V6.594c0-.18.121-.303.303-.303h4.885c3.649 0 6.001 1.72 6.001 6.274 0 2.593-.875 4.283-2.293 5.246l2.805 8.686c.06.15 0 .302-.151.302h-3.618zM125.949 26.8c-.181 0-.303-.121-.303-.302V10.033c0-.122-.059-.182-.181-.182h-3.227c-.179 0-.3-.12-.3-.3V6.595c0-.181.121-.302.3-.302h10.767c.18 0 .302.12.302.302V9.55c0 .18-.122.3-.302.3h-3.227c-.12 0-.18.06-.18.182v16.465c0 .18-.121.301-.303.301h-3.346zM137.525 6.595c0-.18.121-.303.303-.303h3.346c.181 0 .303.122.303.303v19.903c0 .18-.122.302-.303.302h-3.346c-.182 0-.303-.122-.303-.302V6.595zM146.661 6.595c0-.18.121-.303.303-.303h8.956c.18 0 .301.122.301.303v2.956c0 .18-.121.3-.301.3h-5.127c-.121 0-.181.06-.181.181v4.464c0 .12.06.18.181.18h4.432c.182 0 .303.121.303.302v2.956c0 .181-.121.3-.303.3h-4.432c-.121 0-.181.06-.181.182v4.645c0 .12.06.18.181.18h5.127c.18 0 .301.12.301.302v2.955c0 .18-.121.302-.301.302h-8.956c-.182 0-.303-.122-.303-.302V6.595zM165.779 27.07c-3.71 0-5.489-1.96-5.549-5.487 0-.18.06-.303.241-.332l3.227-.512c.21-.03.331.059.331.24.061 1.9.603 2.654 1.779 2.654 1.117 0 1.629-.572 1.629-2.442 0-1.81-.361-2.443-1.901-3.046l-1.235-.484c-2.896-1.115-3.891-2.653-3.891-5.94 0-3.71 1.78-5.7 5.429-5.7 3.589 0 5.276 1.871 5.427 5.097 0 .182-.09.301-.27.332l-3.076.482c-.181.031-.332-.06-.332-.24-.031-1.478-.544-2.233-1.629-2.233-1.056 0-1.568.663-1.568 2.051 0 1.539.332 2.021 1.931 2.654l1.235.482c2.805 1.085 3.89 2.593 3.89 6.062 0 4.192-1.597 6.363-5.668 6.363z" fill="#fff"></path>
</svg>